HIERARCHY
ROOT SpineBase
{
  OFFSET 0.000000 0.000000 0.000000
  CHANNELS 6 Xposition Yposition Zposition Zrotation Xrotation Yrotation
  JOINT SpineMid
  {
    OFFSET 0.000000 30.014396 0.000000
    CHANNELS 3 Zrotation Xrotation Yrotation
    JOINT SpineShoulder
    {
      OFFSET -0.074090 22.488250 -1.141823
      CHANNELS 3 Zrotation Xrotation Yrotation
      JOINT Neck
      {
        OFFSET -0.072910 7.539858 -0.778229
        CHANNELS 3 Zrotation Xrotation Yrotation
        JOINT Head
        {
          OFFSET 4.315094 13.820563 -3.536103
          CHANNELS 3 Zrotation Xrotation Yrotation
          End Site
          {
            OFFSET 0 0 0
          }
        }
      }
      JOINT ShoulderLeft
      {
        OFFSET -12.612240 -1.308838 -6.712438
        CHANNELS 3 Zrotation Xrotation Yrotation
        JOINT ElbowLeft
        {
          OFFSET -6.681007 -25.678605 -2.086246
          CHANNELS 3 Zrotation Xrotation Yrotation
          JOINT WristLeft
          {
            OFFSET 1.125151 -23.951321 -6.084742
            CHANNELS 3 Zrotation Xrotation Yrotation
            JOINT HandLeft
            {
              OFFSET 1.333247 -5.931106 -1.226242
              CHANNELS 3 Zrotation Xrotation Yrotation
              JOINT HandTipLeft
              {
                OFFSET 0.651042 -6.800431 -0.717567
                CHANNELS 3 Zrotation Xrotation Yrotation
                End Site
                {
                  OFFSET 0 0 0
                }
              }
              JOINT ThumbLeft
              {
                OFFSET -2.758232 -0.513749 -2.540691
                CHANNELS 3 Zrotation Xrotation Yrotation
                End Site
                {
                  OFFSET 0 0 0
                }
              }
            }
          }
        }
      }
      JOINT ShoulderRight
      {
        OFFSET 14.106237 -2.636425 5.588464
        CHANNELS 3 Zrotation Xrotation Yrotation
        JOINT ElbowRight
        {
          OFFSET 3.807720 -25.581991 5.643824
          CHANNELS 3 Zrotation Xrotation Yrotation
          JOINT WristRight
          {
            OFFSET 1.887010 -24.313453 -3.065651
            CHANNELS 3 Zrotation Xrotation Yrotation
            JOINT HandRight
            {
              OFFSET 0.667237 -8.205899 -0.642009
              CHANNELS 3 Zrotation Xrotation Yrotation
              JOINT HandTipRight
              {
                OFFSET -0.803749 -4.526420 1.572655
                CHANNELS 3 Zrotation Xrotation Yrotation
                End Site
                {
                  OFFSET 0 0 0
                }
              }
              JOINT ThumbRight
              {
                OFFSET -0.770288 -3.473266 1.507668
                CHANNELS 3 Zrotation Xrotation Yrotation
                End Site
                {
                  OFFSET 0 0 0
                }
              }
            }
          }
        }
      }
    }
  }
  JOINT HipLeft
  {
    OFFSET -6.933438 1.504883 -5.748524
    CHANNELS 3 Zrotation Xrotation Yrotation
    JOINT KneeLeft
    {
      OFFSET -3.190463 -29.558476 -3.067517
      CHANNELS 3 Zrotation Xrotation Yrotation
      JOINT AnkleLeft
      {
        OFFSET -2.011353 -39.207824 8.139702
        CHANNELS 3 Zrotation Xrotation Yrotation
        JOINT FootLeft
        {
          OFFSET 4.660343 -3.132529 -12.460906
          CHANNELS 3 Zrotation Xrotation Yrotation
          End Site
          {
            OFFSET 0 0 0
          }
        }
      }
    }
  }
  JOINT HipRight
  {
    OFFSET 6.613943 0.954741 -1.089285
    CHANNELS 3 Zrotation Xrotation Yrotation
    JOINT KneeRight
    {
      OFFSET -0.420463 -27.371731 4.838502
      CHANNELS 3 Zrotation Xrotation Yrotation
      JOINT AnkleRight
      {
        OFFSET 1.829655 -46.797338 10.510812
        CHANNELS 3 Zrotation Xrotation Yrotation
        JOINT FootRight
        {
          OFFSET 4.632394 -0.293964 -16.128695
          CHANNELS 3 Zrotation Xrotation Yrotation
          End Site
          {
            OFFSET 0 0 0
          }
        }
      }
    }
  }
}
MOTION
Frames: 6
Frame Time: 0.033333
13.097338 108.615533 301.755310 -1.410664 -2.146630 -18.730223 -0.305231 0.695762 18.636711 -0.206227 0.469139 -0.093489 1.365687 9.236879 -2.524425 0.000000 0.000000 0.000000 -1.398096 -1.257641 0.971813 0.412811 -5.588145 -0.654585 -5.777098 -0.508274 -0.073606 9.720284 2.070846 -1.333179 0.000000 0.000000 0.000000 0.000000 0.000000 0.000000 0.955170 -3.499709 -0.662456 5.141958 6.300924 -0.049208 -0.018697 -0.026283 0.219446 -4.443069 -1.809421 0.131027 0.000000 0.000000 0.000000 0.000000 0.000000 0.000000 4.313726 5.359312 17.813732 -4.960828 -4.980060 0.572343 -5.360743 -15.263962 -17.211979 0.000000 0.000000 0.000000 -3.804497 12.422462 18.928916 3.910803 -19.271822 1.452575 -7.083677 -5.313514 -4.162730 0.000000 0.000000 0.000000
13.372585 108.791046 300.879743 -2.355611 -2.808010 -19.264090 -0.359404 0.608703 19.092436 -0.419059 0.333954 -0.167674 2.964169 12.802906 -3.240675 0.000000 0.000000 0.000000 -2.400481 -0.193572 1.278267 -0.358958 -8.820096 -0.455055 -3.617636 0.022982 -1.138333 7.421339 1.673609 -0.826771 0.000000 0.000000 0.000000 0.000000 0.000000 0.000000 2.125675 -3.136742 -0.640211 5.407398 6.789659 -0.055666 -0.015914 -0.027286 0.229287 -4.657746 -1.785408 0.147476 0.000000 0.000000 0.000000 0.000000 0.000000 0.000000 4.945830 6.362303 18.226760 -5.774247 -5.571521 0.383012 -13.655998 -27.237879 -33.754623 0.000000 0.000000 0.000000 -1.643952 12.456421 19.470663 3.256297 -18.559341 1.311989 -9.655894 -9.783985 -5.948158 0.000000 0.000000 0.000000
14.116915 109.292594 299.933524 -4.129693 -2.959913 -29.948227 -0.504585 0.593229 29.651450 -0.266738 0.491739 -0.235634 0.291117 13.698277 -3.891757 0.000000 0.000000 0.000000 -2.261819 1.016901 1.292673 -2.730486 -15.087503 -0.318563 -5.052655 -1.887907 -2.356039 8.667386 5.350812 -0.614096 0.000000 0.000000 0.000000 0.000000 0.000000 0.000000 3.686518 -3.443030 -0.551734 5.479408 7.118480 -0.027860 0.005530 -0.031619 0.228451 -4.687653 -1.857352 0.140534 0.000000 0.000000 0.000000 0.000000 0.000000 0.000000 8.473167 7.858243 28.352430 -11.950270 -4.783675 -0.227198 -28.867410 -37.043553 -62.000256 0.000000 0.000000 0.000000 -2.057704 17.208006 30.849607 -0.738175 -24.433200 0.087752 -13.114051 -17.719849 -10.468712 0.000000 0.000000 0.000000
15.815878 106.781957 298.621298 -5.102193 -3.659133 -36.689366 -0.607423 0.601959 36.296691 -0.137666 0.609550 -0.267785 -0.809377 15.035826 -4.217272 0.000000 0.000000 0.000000 -3.141829 2.329586 1.442829 -1.013822 -17.634946 -0.569952 -5.891568 -3.612101 -2.987063 5.422071 4.840550 0.573880 0.000000 0.000000 0.000000 0.000000 0.000000 0.000000 4.470334 -3.275229 -0.554288 5.465285 7.524357 0.013585 0.021828 -0.029552 0.225411 -4.655703 -1.911381 0.131920 0.000000 0.000000 0.000000 0.000000 0.000000 0.000000 10.119328 2.906392 36.082866 -8.309611 2.717632 -0.170900 -38.810551 -41.923748 -64.645892 0.000000 0.000000 0.000000 -4.775230 17.517506 37.902077 1.286603 -25.612280 0.862377 -18.265757 -25.518213 -13.532030 0.000000 0.000000 0.000000
17.536632 103.887598 296.464511 -5.269180 -4.598774 -33.556825 -0.596406 0.731340 33.112047 -0.032072 0.710844 -0.265297 -3.746381 16.487682 -4.570196 0.000000 0.000000 0.000000 -0.626286 0.694780 1.697672 0.370818 -12.744208 -1.036190 -4.310480 0.084427 -1.529625 -3.717153 -8.430789 0.116627 0.000000 0.000000 0.000000 0.000000 0.000000 0.000000 4.415766 -2.585601 -0.592918 5.561119 7.576258 0.021794 0.030673 -0.027090 0.226284 -4.692662 -1.906028 0.134871 0.000000 0.000000 0.000000 0.000000 0.000000 0.000000 2.089369 -2.040865 34.517118 3.707853 3.263448 -1.493722 -46.313573 -39.900573 -78.368119 0.000000 0.000000 0.000000 -7.911328 9.990101 33.420823 14.937902 -17.035115 4.916001 -23.483286 -30.018298 -11.328153 0.000000 0.000000 0.000000
18.441869 97.719147 295.412315 -5.064663 -5.849354 -27.555146 -0.493466 0.867169 27.071819 0.063258 0.758608 -0.252185 -7.244501 18.249699 -4.746280 0.000000 0.000000 0.000000 2.024209 2.623840 1.178447 2.794963 -7.314863 -1.072490 -6.737151 -5.060828 -1.127383 -8.462359 -10.632469 0.688087 0.000000 0.000000 0.000000 0.000000 0.000000 0.000000 4.051760 -1.363323 -0.626313 5.583382 7.484006 0.008121 0.023097 -0.018369 0.228449 -4.714255 -1.905280 0.136303 0.000000 0.000000 0.000000 0.000000 0.000000 0.000000 -7.123035 -4.912398 29.543185 16.026100 2.941968 -2.473502 -45.015879 -38.456472 -76.463026 0.000000 0.000000 0.000000 -12.639724 3.198405 25.864493 26.766702 -7.928827 6.319960 -27.634167 -34.488159 -9.633366 0.000000 0.000000 0.000000
